**ABCDEFGHIJKLMNOPQRSTUVWXYZabcdefghijklmnopqrstuvwxyz**************************
**PARASOLID !"#$%&'()*+,-./:;<=>?@[\]^_`{|}~0123456789**************************
**PART1;
MC=AMD64;
MC_MODEL=Intel64 Family 6 Model 158 Stepping 9, GenuineIntel;
MC_ID=unknown;
OS=Windows_NT;
OS_RELEASE=unknown;
FRU=Parasolid Version 31.0, build 203,  8- 8-2018;
APPL=SOLIDWORKS 2019-2018263;
SITE=;
USER=unknown;
FORMAT=text;
GUISE=transmit;
KEY=Деталь1;
FILE=Деталь1.x_t;
DATE=Thu Mar 14 10:56:34 2019;
**PART2;
SCH=SCH_3100203_31001;
USFLD_SIZE=0;
**PART3;
**END_OF_HEADER*****************************************************************
T51 : TRANSMIT FILE created by modeller version 310020323 SCH_3100203_31001_1300
6215 0 12 34 CCCCCCI4 mesh1006 0 I8 polyline1008 0 CCCCCCCDI5 owner1040 0 CCCCCC
I13 boundary_mesh1006 0 I17 boundary_polyline1008 0 CCCA16 index_map_offset0 0 1
 dA9 index_map82 0 A17 node_id_index_map82 0 A20 schema_embedding_map82 0 A5 chi
ld12 0 A14 lowest_node_id0 0 1 dA16 mesh_offset_data206 0 Z1 452 2 3 0 0 0 0 0 0
 1e3 1e-8 0 4 0 1 0 1 1 5 6 7 8 0 0 9 10 11 0 0 0 0 0 0 0 81 255 2 2 442 12 1 13
 0 0 0 0 14 70 11 CI9 list_type0 0 1 uI10 notransmit0 0 1 lCCCDCCDI12 finger_ind
ex0 0 1 dI12 finger_block1012 0 CZ3 0 4 T1 0 0 8 20 1 15 15 13 255 5 94 0 1 0 16
 0 0 17 0 50 255 6 89 0 18 19 0 0 +0 0 .01 1 0 0 0 0 -1 30 255 7 93 0 10 20 0 0
 +0 0 .01 0 0 -1 29 255 8 154 0 11 21 0 .0253885228458106 .01003711259663476 .01
 19 8 CCCCCCCA5 owner12 0 Z9 28 0 1 17 0 22 V0 16 255 10 77 0 ?23 0 24 7 0 0 1 1
8 255 11 152 0 25 0 26 8 ?1 17 255 25 0 27 28 29 11 30 31 0 32 -18 26 135 0 33 1
1 34 21 ?1 17 33 0 35 36 37 26 38 39 0 40 -18 34 25 0 41 26 42 43 ?1 29 21 137 0
 26 44 8 .00930476801993407 .01003711259663476 0 29 44 70 0 45 46 21 0 .01277318
36508815 0 18 45 61 0 47 48 49 44 ?1 29 46 71 0 49 50 44 .0356100877539726 .0127
731836508815 0 18 49 62 0 51 45 52 46 ?1 29 50 72 0 52 53 46 .0356100877539726 0
 0 18 52 63 0 54 49 55 50 ?1 29 53 73 0 55 43 50 0 0 0 18 55 64 0 56 52 57 53 ?1
 29 43 27 0 34 58 53 0 .0127731836508815 .01 29 58 24 0 42 59 43 .03561008775397
26 .0127731836508815 .01 18 42 22 0 60 34 61 58 ?1 29 59 21 0 61 62 58 .03561008
77539726 0 .01 18 61 19 0 63 42 48 59 ?1 29 62 18 0 48 64 59 0 0 .01 18 48 16 0
 65 61 45 62 ?1 29 64 279 0 57 66 62 .00930476801993407 .0044032015609794 .01 18
 57 210 0 67 55 68 64 ?1 29 66 280 0 68 69 64 .0253885228458106 .004403201560979
4 .01 18 68 211 0 70 57 71 66 ?1 29 69 282 0 71 72 66 .00930476801993407 .010037
11259663476 .01 18 71 205 0 28 68 73 69 ?1 29 72 284 0 73 74 69 .025388522845810
6 .01003711259663476 0 18 73 209 0 30 71 75 72 ?1 29 74 285 0 75 76 72 .02538852
28458106 .0044032015609794 0 18 75 208 0 77 73 78 74 ?1 29 76 286 0 78 0 74 .009
30476801993407 .0044032015609794 0 18 78 207 0 37 75 0 76 ?1 17 37 0 35 33 67 78
 79 80 0 81 +15 255 35 220 0 67 82 0 17 67 0 35 37 36 57 83 84 0 79 +17 79 0 85
 70 81 57 37 80 0 86 -16 80 173 0 ?37 87 88 89 0 0 1 17 81 0 85 79 77 78 90 91 0
 38 -15 85 224 0 70 92 0 17 77 0 85 81 70 75 93 88 0 94 +17 90 0 95 96 38 75 81
 91 0 0 +16 91 174 0 ?90 97 39 98 0 0 1 17 38 0 95 90 99 78 33 39 0 0 +15 95 133
 0 99 100 0 17 99 0 95 38 96 26 29 101 0 0 +16 39 170 0 ?38 91 0 102 0 0 1 30 10
2 274 0 39 0 98 0 +.00930476801993407 .01003711259663476 0 0 -1 0 30 98 273 0 91
 102 103 0 +.00930476801993407 .0044032015609794 0 1 0 0 30 103 272 0 97 98 104
 0 +.0253885228458106 .01003711259663476 0 0 1 0 16 97 178 0 ?96 101 91 103 0 0
 1 30 104 271 0 101 103 105 0 +.00930476801993407 .01003711259663476 0 -1 0 0 16
 101 182 0 ?99 106 97 104 0 0 1 30 105 270 0 106 104 107 0 +.00930476801993407 .
01003711259663476 .012 0 0 -1 16 106 169 0 ?40 31 101 105 0 0 1 30 107 269 0 31
 105 108 0 +.0253885228458106 .01003711259663476 .012 0 0 -1 16 31 181 0 ?30 88
 106 107 0 0 1 30 108 268 0 88 107 89 0 +.0253885228458106 .0044032015609794 .01
2 0 0 -1 16 88 177 0 ?77 80 31 108 0 0 1 30 89 267 0 80 108 109 0 +.009304768019
93407 .0044032015609794 .012 0 0 -1 30 109 266 0 87 89 110 0 +0 .010037112596634
76 .01 -1 0 0 16 87 192 0 ?28 111 80 109 0 0 1 30 110 265 0 111 109 112 0 +.0253
885228458106 0 .01 0 1 0 16 111 190 0 ?32 113 87 110 0 0 1 30 112 264 0 113 110
 114 0 +0 .0044032015609794 .01 1 0 0 16 113 188 0 ?70 84 111 112 0 0 1 30 114 2
63 0 84 112 115 0 +.00930476801993407 0 .01 0 -1 0 16 84 186 0 ?67 116 113 114 0
 0 1 30 115 5 0 117 114 118 0 +0 0 .01 0 -1 0 16 117 4 0 ?119 120 121 115 0 0 1
 30 118 8 0 120 115 122 0 +0 0 .01 1 0 0 16 120 7 0 ?63 123 117 118 0 0 1 30 122
 11 0 123 118 124 0 +.0356100877539726 0 .01 0 1 0 16 123 10 0 ?60 125 120 122 0
 0 1 30 124 14 0 125 122 126 0 +0 .0127731836508815 .01 -1 0 0 16 125 13 0 ?41 1
27 123 124 0 0 1 30 126 69 0 116 124 128 0 +0 0 0 0 -1 0 16 116 57 0 ?129 130 84
 126 0 0 1 30 128 68 0 130 126 131 0 +0 0 0 1 0 0 16 130 53 0 ?54 132 116 128 0
 0 1 30 131 67 0 132 128 133 0 +.0356100877539726 0 0 0 1 0 16 132 49 0 ?51 121
 130 131 0 0 1 30 133 66 0 121 131 134 0 +0 .0127731836508815 0 -1 0 0 16 121 45
 0 ?47 117 132 133 0 0 1 30 134 90 0 127 133 135 0 +0 .0127731836508815 .01 0 0
 -1 16 127 74 0 ?136 137 125 134 0 0 1 30 135 91 0 137 134 20 0 +.03561008775397
26 .0127731836508815 .01 0 0 -1 16 137 75 0 ?138 24 127 135 0 0 1 30 20 92 0 24
 135 7 0 +.0356100877539726 0 .01 0 0 -1 16 24 76 0 ?139 10 137 20 0 0 1 17 139
 0 140 51 141 52 142 24 0 143 +15 140 80 0 51 144 0 17 51 0 140 145 139 49 143 1
32 0 138 +17 141 0 140 139 145 61 60 123 0 0 -17 142 0 146 65 54 61 139 24 0 141
 -17 143 0 147 56 148 52 51 132 0 0 -15 147 44 0 149 100 95 17 56 0 147 149 143
 55 54 130 0 23 -17 148 0 147 143 149 49 47 121 0 0 -17 149 0 147 148 56 45 129
 116 0 0 -17 47 0 150 151 138 45 148 121 0 136 +15 150 78 0 47 152 0 17 151 0 15
0 153 47 34 136 127 0 154 -17 138 0 150 47 153 49 145 137 0 148 +17 136 0 155 12
9 154 45 151 127 0 149 +15 155 84 0 129 18 0 17 129 0 155 156 136 55 149 116 0 0
 +17 154 0 155 136 156 34 119 117 0 0 -17 156 0 155 154 129 48 23 10 0 0 -17 119
 0 157 63 41 48 154 117 0 156 +15 157 3 0 119 16 158 17 63 0 157 60 119 61 65 12
0 0 142 +17 41 0 157 119 60 34 153 125 0 151 +17 60 0 157 41 63 42 141 123 0 145
 +17 153 0 150 138 151 42 41 125 0 0 -17 145 0 140 141 51 42 138 137 0 153 -17 6
5 0 146 23 142 48 63 120 0 119 -15 146 82 0 54 159 0 17 23 0 146 54 65 55 156 10
 0 129 +17 54 0 146 142 23 52 56 130 0 139 +14 255 159 83 160 ?144 18 146 5 19 -
0 0 144 18 22 81 1 160 443 161 159 162 0 0 163 164 14 144 81 163 ?152 159 140 5
 165 -0 0 152 159 22 14 18 85 166 ?159 100 155 5 6 -0 0 159 100 22 50 19 88 0 15
9 165 6 0 +0 0 .01 0 1 0 0 0 1 13 22 29 0 0 0 0 0 0 9 16 14 16 166 167 ?100 0 15
7 5 168 -0 0 100 0 22 81 1 167 446 161 16 169 0 166 170 171 14 100 150 170 ?18 1
6 147 5 172 +0 0 18 16 22 50 168 2 0 16 173 172 0 +0 0 .01 0 0 -1 -1 0 0 50 173
 257 0 82 174 168 0 +.00930476801993407 .01003711259663476 .012 1 0 0 0 0 -1 50
 172 65 0 100 168 175 0 +0 0 0 0 0 -1 -1 0 0 50 175 86 0 152 172 165 0 +0 .01277
31836508815 .01 0 -1 0 0 0 -1 14 152 79 176 ?82 144 150 5 175 -0 0 82 144 22 50
 165 87 0 144 175 19 0 +.0356100877539726 0 .01 -1 0 0 0 0 1 81 1 176 448 161 15
2 177 0 170 178 179 14 82 217 178 ?92 152 35 5 173 +0 0 92 152 22 81 1 178 449 1
61 82 180 0 176 181 182 14 92 221 181 ?183 82 85 5 174 +0 0 183 82 22 81 1 181 4
50 161 92 184 0 178 185 186 14 183 225 185 ?187 92 188 5 189 +0 0 187 92 22 50 1
74 258 0 92 189 173 0 +.00930476801993407 .0044032015609794 .012 0 1 0 0 0 1 50
 189 259 0 183 190 174 0 +.0253885228458106 .01003711259663476 .012 -1 0 0 0 0 1
 50 190 260 0 187 0 189 0 +.00930476801993407 .01003711259663476 .012 0 -1 0 0 0
 -1 14 187 229 191 ?0 183 27 5 190 +0 0 0 183 22 81 1 191 452 161 187 192 0 185
 0 193 15 27 232 0 28 187 0 17 28 0 27 40 25 71 194 87 0 36 +17 40 0 27 29 28 26
 36 106 0 99 +17 194 0 158 195 83 11 28 87 0 0 -17 36 0 35 67 33 71 40 106 0 83
 -17 83 0 158 194 86 71 67 84 0 0 -15 158 165 0 83 16 0 17 86 0 158 83 195 57 70
 113 0 0 -17 195 0 158 86 194 68 32 111 0 0 -17 70 0 85 77 79 68 86 113 0 93 +17
 93 0 188 32 94 68 77 88 0 195 -15 188 228 0 32 183 0 17 32 0 188 30 93 11 195 1
11 0 194 +17 94 0 188 93 30 75 96 97 0 90 -17 30 0 188 94 32 73 25 31 0 29 +17 9
6 0 95 99 90 73 94 97 0 0 +17 29 0 27 25 40 73 99 101 0 96 -80 255 1 161 196 197
 9000 1 1 1 1 1 1 1 1 0 FFFFTFTFFFFFFF1 81 1 192 420 198 187 0 191 199 0 200 81
 1 185 451 161 183 199 0 181 191 201 82 255 1 193 1376256108 81 1 199 419 198 18
3 0 185 184 192 202 82 1 201 1377108076 80 1 198 0 203 8001 0 0 0 0 3 5 0 0 0 FF
FFTFTFFFFFFF2 81 1 184 418 198 92 0 181 180 199 204 83 255 3 202 .53725490196078
4 .3490196078431375 .3372549019607845 81 1 180 417 198 82 0 178 177 184 205 83 3
 204 .537254901960784 .3490196078431375 .3372549019607845 81 1 177 416 198 152 0
 176 206 180 207 83 3 205 .537254901960784 .3490196078431375 .3372549019607845 8
1 1 206 415 198 144 0 163 162 177 208 83 3 207 .537254901960784 .349019607843137
5 .3372549019607845 81 1 163 444 161 144 206 0 160 166 209 81 1 162 414 198 159
 0 160 210 206 211 83 3 208 .537254901960784 .3490196078431375 .3372549019607845
 81 1 210 413 198 18 0 166 212 162 213 83 3 211 .537254901960784 .34901960784313
75 .3372549019607845 81 1 166 445 161 18 210 0 163 167 214 81 1 212 412 198 100
 0 170 169 210 215 83 3 213 .537254901960784 .3490196078431375 .3372549019607845
 81 1 170 447 161 100 212 0 167 176 216 81 1 169 411 198 16 0 167 0 212 217 83 3
 215 .537254901960784 .3490196078431375 .3372549019607845 83 3 217 .537254901960
784 .3490196078431375 .3372549019607845 82 1 216 1375141996 82 1 214 88539240 82
 1 209 88014952 79 255 15 203 SDL/TYSA_COLOUR83 3 200 .537254901960784 .34901960
78431375 .3372549019607845 79 14 197 SWEntUnchanged82 1 186 1377960044 82 1 182
 1378484332 82 1 179 87752808 82 1 171 1380122732 82 1 164 88277096 19 17 95 0 1
 0 9 5 S0 74 4 CI16 index_map_offset0 0 1 dCCZ20 15 8 0 0 218 219 191 220 221 13
 192 2 0 0 0 0 0 0 0 0 0 0 0 0 81 2 218 119 222 1 0 219 0 0 0 223 81 2 219 123 2
24 1 218 220 0 0 0 225 81 2 220 131 226 1 219 221 0 0 0 0 81 1 221 334 227 1 220
 13 0 0 228 81 2 13 346 229 1 221 2 0 0 230 0 80 2 229 231 232 8004 0 0 0 0 3 5
 0 0 0 FFTFFFFFFFFFFF2 3 83 1 230 89e2 79 16 232 SDL/TYSA_DENSITY80 1 227 233 23
4 9000 1 1 1 1 1 1 1 1 0 FFTFFFFFFFFFFF1 82 1 228 1237 79 10 234 BODY_MATCH80 2
 226 235 236 9000 0 0 0 0 3 5 0 0 0 FFTFFFFFFFFFFF9 1 79 16 236 BODY_RECIPE_2001
80 2 224 237 238 9000 0 0 0 0 3 5 0 0 0 FFTFFFFFFFFFFF9 1 82 1 225 35 79 30 238
 LAST_BODY_MODIFYING_FEATURE_ID80 2 222 239 240 9000 0 0 0 0 3 5 0 0 0 FFTFFFFFF
FFFFF9 1 82 1 223 105 79 19 240 ENT_TIME_STAMP_200180 2 12 241 242 9000 0 0 0 0
 3 5 0 0 0 FFTFFFFFFFFFFF9 1 82 1 14 102 79 12 242 ATOM_ID_20011 0 
